<?xml version="1.0" encoding="utf-8"?>
<svg xmlns="http://www.w3.org/2000/svg" viewBox="0 0 48 48">
  <path fill="#90CAF9" d="M45 30.234L45 32.913 24 40 3 32.943 3 30.086z" />
  <path fill="#90CAF9" d="M3.5 30A1.5 1.5 0 1 0 3.5 33 1.5 1.5 0 1 0 3.5 30zM44.5 30A1.5 1.5 0 1 0 44.5 33 1.5 1.5 0 1 0 44.5 30zM45 24.087L45 26.913 24 34 3 26.913 3 24.086z" />
  <path fill="#90CAF9" d="M3.5 24A1.5 1.5 0 1 0 3.5 27 1.5 1.5 0 1 0 3.5 24zM44.5 24A1.5 1.5 0 1 0 44.5 27 1.5 1.5 0 1 0 44.5 24zM45 18.087L45 20.914 24 28 3 20.914 3 18.087z" />
  <path fill="#90CAF9" d="M3.5 18A1.5 1.5 0 1 0 3.5 21 1.5 1.5 0 1 0 3.5 18zM44.5 18A1.5 1.5 0 1 0 44.5 21 1.5 1.5 0 1 0 44.5 18z" />
  <g>
    <path fill="#42A5F5" d="M46 22.5c0-1.359-1.236-1.471-1.313-1.481L24 28 3.312 21.019C2.573 21.112 2 21.736 2 22.5c0 .653.42 1.203 1.003 1.409v.005L24 31l21-7.087v-.005C45.581 23.701 46 23.152 46 22.5zM44.5 15A1.5 1.5 0 1 0 44.5 18 1.5 1.5 0 1 0 44.5 15z" />
    <path fill="#42A5F5" d="M45 15.087L45 17.914 24 25 3 17.914 3 15.086" />
    <path fill="#42A5F5" d="M3.5 15A1.5 1.5 0 1 0 3.5 18A1.5 1.5 0 1 0 3.5 15Z" />
    <path fill="#42A5F5" d="M45 15.087L24 22 3 15.086 24 8zM46 28.5c0-1.291-1.235-1.472-1.313-1.481L24 34 4.561 27.439l-1.248-.421C2.574 27.111 2 27.735 2 28.5c0 .652.419 1.201 1 1.408v.005L24 37l21-7.087v-.005C45.581 29.701 46 29.152 46 28.5z" />
  </g>
</svg>