<?xml version="1.0" encoding="utf-8"?>
<svg xmlns="http://www.w3.org/2000/svg" viewBox="0 0 48 48">
  <path fill="#a5d6a7" d="M7 6H27V42H7z"></path>
  <path fill="#81c784" d="M26,13h-1c-2.757,0-5,2.243-5,5v22c0,0.712,0.154,1.386,0.424,2H26V13z"></path>
  <path fill="#388e3c" d="M6,5v38h22V5H6z M26,41H8V7h18V41z"></path>
  <path fill="#388e3c" d="M17 10A2 2 0 1 0 17 14 2 2 0 1 0 17 10zM17 34A2 2 0 1 0 17 38 2 2 0 1 0 17 34zM17 17A7 7 0 1 0 17 31 7 7 0 1 0 17 17zM7 10.221C7.532 10.7 8.228 11 9 11c1.657 0 3-1.343 3-3 0-.772-.3-1.468-.779-2H7V10.221zM7 37.779V42h4.221C11.7 41.468 12 40.772 12 40c0-1.657-1.343-3-3-3C8.228 37 7.532 37.3 7 37.779z"></path>
  <path fill="#2e7d32" d="M24 24c0-2.779-1.623-5.172-3.969-6.303C20.024 17.799 20 17.896 20 18v12.317C22.363 29.193 24 26.791 24 24zM26 13H28V15H26zM26 41h-5.899c.152.743.482 1.416.924 2H26V41z"></path>
  <path fill="#388e3c" d="M27,10.221V6h-4.221C22.3,6.532,22,7.228,22,8c0,1.657,1.343,3,3,3C25.772,11,26.468,10.7,27,10.221z"></path>
  <path fill="#ffc107" d="M22,18v22c0,1.657,1.343,3,3,3h14c1.657,0,3-1.343,3-3V18c0-1.657-1.343-3-3-3H25 C23.343,15,22,16.343,22,18z"></path>
  <path fill="#37474f" d="M34 15H38V43H34z"></path>
</svg>